<svg width="90" height="45" viewBox="0 0 90 45" fill="none" xmlns="http://www.w3.org/2000/svg">
<path d="M10.133 27.4936H16.5167V30.0284H10.133V27.4936ZM10.133 34.3162H16.5167V36.8509H10.133V34.3162ZM6.05444 24.5325C7.21973 24.5325 8.25836 24.8562 9.17032 25.5037C10.0992 26.1354 10.8169 27.0435 11.3236 28.228C11.8471 29.3967 12.1089 30.7785 12.1089 32.3736C12.1089 33.9845 11.8471 35.3822 11.3236 36.5666C10.8169 37.7354 10.0992 38.6433 9.17032 39.2909C8.25836 39.9225 7.21973 40.2385 6.05444 40.2385C4.88915 40.2385 3.85052 39.9225 2.93856 39.2909C2.02659 38.6433 1.30884 37.7354 0.785304 36.5666C0.261769 35.3822 0 33.9845 0 32.3736C0 30.7785 0.261769 29.3967 0.785304 28.228C1.30884 27.0435 2.02659 26.1354 2.93856 25.5037C3.85052 24.8562 4.88915 24.5325 6.05444 24.5325ZM6.05444 27.3989C5.49713 27.3989 4.99894 27.5884 4.55983 27.9674C4.13763 28.3465 3.79986 28.9071 3.54653 29.6494C3.31009 30.3758 3.19188 31.2839 3.19188 32.3736C3.19188 33.4477 3.31009 34.3635 3.54653 35.1216C3.79986 35.864 4.13763 36.4245 4.55983 36.8035C4.99894 37.1826 5.49713 37.3721 6.05444 37.3721C6.64554 37.3721 7.15219 37.1826 7.57438 36.8035C7.99658 36.4245 8.3259 35.864 8.56235 35.1216C8.79879 34.3635 8.917 33.4477 8.917 32.3736C8.917 31.2839 8.79879 30.3758 8.56235 29.6494C8.3259 28.9071 7.99658 28.3465 7.57438 27.9674C7.15219 27.5884 6.64554 27.3989 6.05444 27.3989ZM15.9594 22.9927H19.3286V45H15.9594V22.9927ZM39.7193 23.0401H42.9365V36.7799H39.7193V23.0401ZM36.8821 28.4412H40.6059V30.9997H36.8821V28.4412ZM34.8807 23.4428H38.022V36.0455H34.8807V23.4428ZM22.8225 25.2668H34.2221V27.7068H22.8225V25.2668ZM28.5476 28.3938C29.544 28.3938 30.4222 28.5597 31.1822 28.8913C31.9422 29.223 32.5333 29.6731 32.9555 30.2416C33.3946 30.8101 33.6141 31.4734 33.6141 32.2315C33.6141 32.9896 33.3946 33.6609 32.9555 34.2451C32.5333 34.8136 31.9422 35.2637 31.1822 35.5954C30.4222 35.9114 29.544 36.0692 28.5476 36.0692C27.585 36.0692 26.7152 35.9114 25.9384 35.5954C25.1784 35.2637 24.5789 34.8136 24.1398 34.2451C23.7007 33.6609 23.4811 32.9896 23.4811 32.2315C23.4811 31.4734 23.7007 30.8101 24.1398 30.2416C24.5789 29.6731 25.1784 29.223 25.9384 28.8913C26.7152 28.5597 27.585 28.3938 28.5476 28.3938ZM28.5476 30.668C27.9396 30.668 27.4415 30.8022 27.053 31.0707C26.6815 31.3392 26.4957 31.7261 26.4957 32.2315C26.4957 32.7369 26.6815 33.1317 27.053 33.416C27.4415 33.6846 27.9396 33.8187 28.5476 33.8187C29.1556 33.8187 29.6538 33.6846 30.0422 33.416C30.4307 33.1317 30.6249 32.7369 30.6249 32.2315C30.6249 31.7261 30.4307 31.3392 30.0422 31.0707C29.6707 30.8022 29.1725 30.668 28.5476 30.668ZM26.8757 23.2533H30.1942V26.9488H26.8757V23.2533ZM34.982 36.9931C37.4983 36.9931 39.4742 37.3404 40.9099 38.0354C42.3453 38.7304 43.0632 39.7173 43.0632 40.9965C43.0632 42.2601 42.3453 43.239 40.9099 43.934C39.4742 44.629 37.4983 44.9764 34.982 44.9764C32.4657 44.9764 30.4898 44.629 29.0543 43.934C27.6357 43.239 26.9263 42.2601 26.9263 40.9965C26.9263 39.7173 27.6357 38.7304 29.0543 38.0354C30.4898 37.3404 32.4657 36.9931 34.982 36.9931ZM35.0074 39.3383C33.4368 39.3383 32.2546 39.4724 31.4608 39.741C30.6671 40.0096 30.2702 40.428 30.2702 40.9965C30.2702 41.5494 30.6671 41.9598 31.4608 42.2284C32.2546 42.497 33.4368 42.6311 35.0074 42.6311C36.5442 42.6311 37.7009 42.497 38.478 42.2284C39.2715 41.9598 39.6687 41.5494 39.6687 40.9965C39.6687 40.428 39.2715 40.0096 38.478 39.741C37.7009 39.4724 36.5442 39.3383 35.0074 39.3383ZM52.6619 24.5325C53.8272 24.5325 54.8658 24.8562 55.7778 25.5037C56.7069 26.1354 57.4244 27.0435 57.9311 28.228C58.4548 29.3967 58.7164 30.7785 58.7164 32.3736C58.7164 33.9845 58.4548 35.3822 57.9311 36.5666C57.4244 37.7354 56.7069 38.6433 55.7778 39.2909C54.8658 39.9225 53.8272 40.2385 52.6619 40.2385C51.4966 40.2385 50.458 39.9225 49.546 39.2909C48.6341 38.6433 47.9166 37.7354 47.3928 36.5666C46.8694 35.3822 46.6075 33.9845 46.6075 32.3736C46.6075 30.7785 46.8694 29.3967 47.3928 28.228C47.9166 27.0435 48.6341 26.1354 49.546 25.5037C50.458 24.8562 51.4966 24.5325 52.6619 24.5325ZM52.6619 27.3989C52.1046 27.3989 51.6065 27.5884 51.1673 27.9674C50.7452 28.3465 50.4159 28.9071 50.1794 29.6494C49.9432 30.3758 49.8247 31.2839 49.8247 32.3736C49.8247 33.4477 49.9432 34.3635 50.1794 35.1216C50.4159 35.864 50.7452 36.4245 51.1673 36.8035C51.6065 37.1826 52.1046 37.3721 52.6619 37.3721C53.2531 37.3721 53.7598 37.1826 54.1819 36.8035C54.6043 36.4245 54.9336 35.864 55.1698 35.1216C55.4064 34.3635 55.5245 33.4477 55.5245 32.3736C55.5245 31.2839 55.4064 30.3758 55.1698 29.6494C54.9336 28.9071 54.6043 28.3465 54.1819 27.9674C53.7598 27.5884 53.2531 27.3989 52.6619 27.3989ZM62.5669 22.9927H65.9361V45H62.5669V22.9927ZM57.7284 30.9286H63.9855V33.4397H57.7284V30.9286ZM82.071 23.348H85.1615V43.9577H82.071V23.348ZM83.9202 31.4971H88.0494V34.0319H83.9202V31.4971ZM69.9367 37.0878H70.9754C71.5495 37.0878 72.1492 37.0721 72.774 37.0404C73.4159 37.0087 74.1252 36.914 74.9019 36.7562L75.1299 39.3146C74.2854 39.4884 73.5339 39.5909 72.8753 39.6226C72.2167 39.6543 71.5834 39.6699 70.9754 39.6699H69.9367V37.0878ZM69.9367 25.6222H74.8766V28.1569H72.9766V38.4855H69.9367V25.6222ZM75.7379 37.0878H76.8272C77.5026 37.0878 78.1783 37.0721 78.8537 37.0404C79.5463 37.0087 80.3145 36.9063 81.159 36.7325L81.387 39.2909C80.5089 39.4804 79.7065 39.5909 78.9804 39.6226C78.2711 39.6543 77.5532 39.6699 76.8272 39.6699H75.7379V37.0878ZM75.7379 25.6222H80.855V28.1569H78.7777V38.4618H75.7379V25.6222ZM86.8588 23.0164H90V44.9527H86.8588V23.0164Z" fill="#81D4FA"/>
<path fill-rule="evenodd" clip-rule="evenodd" d="M30.8956 11.6334L21.045 1.41881C20.174 0.515737 18.9332 0 17.6313 0H13.7719C13.4704 0 13.2744 0.296047 13.4092 0.547637L19.3485 11.6334H8.33566L6.0309 8.89586C5.53338 8.30495 4.77262 7.95985 3.96735 7.95985H0.65025C0.330515 7.95985 0.107288 8.25548 0.214828 8.53644L3.25261 16.4744C3.26102 16.4965 3.27838 16.5139 3.30007 16.5235C3.31344 16.5399 3.33147 16.553 3.35285 16.561L8.73707 18.571C11.6297 19.6508 14.7166 20.2056 17.8321 20.2056H36.6132C38.6357 20.2056 40.6329 19.7891 42.4628 18.986L43.4832 18.5381C44.5702 18.061 45.2642 17.0407 45.2642 15.9195C45.2642 14.7983 44.5702 13.778 43.4832 13.3008L42.4628 12.853C40.6329 12.0499 38.6357 11.6334 36.6132 11.6334H30.8956Z" fill="#81D4FA"/>
</svg>
